<svg width="1280" height="923" xmlns="http://www.w3.org/2000/svg"><g><path d="M-77.19802030362189,-54.54244547523558L-116.41646166332066,418.46182613633573L-90.2916980534792,272.24011226557195Z" fill="#eaeafa" stroke="#eaeafa"></path><path d="M-77.19802030362189,-54.54244547523558L-90.2916980534792,272.24011226557195L-44.85518085770309,16.21416832320392Z" fill="#f5f0f9" stroke="#f5f0f9"></path><path d="M-77.19802030362189,-54.54244547523558L-44.85518085770309,16.21416832320392L23.3612950053066,28.50580159574747Z" fill="#f8f2f9" stroke="#f8f2f9"></path><path d="M-77.19802030362189,-54.54244547523558L23.3612950053066,28.50580159574747L93.52597187273204,-69.25652123987675Z" fill="#f5f0f7" stroke="#f5f0f7"></path><path d="M-77.19802030362189,-54.54244547523558L93.52597187273204,-69.25652123987675L173.8877803646028,-100.80981440842152Z" fill="#f1eef6" stroke="#f1eef6"></path><path d="M93.52597187273204,-69.25652123987675L23.3612950053066,28.50580159574747L206.44162377342582,59.736593551933765Z" fill="#ececf5" stroke="#ececf5"></path><path d="M93.52597187273204,-69.25652123987675L206.44162377342582,59.736593551933765L173.8877803646028,-100.80981440842152Z" fill="#e9eaf4" stroke="#e9eaf4"></path><path d="M173.8877803646028,-100.80981440842152L206.44162377342582,59.736593551933765L341.35440244339406,-112.06074485555291Z" fill="#e2e6f2" stroke="#e2e6f2"></path><path d="M341.35440244339406,-112.06074485555291L206.44162377342582,59.736593551933765L353.47840304486454,52.006875872612Z" fill="#dde4f0" stroke="#dde4f0"></path><path d="M341.35440244339406,-112.06074485555291L353.47840304486454,52.006875872612L571.5175450779498,-39.66708426363766Z" fill="#d3deed" stroke="#d3deed"></path><path d="M341.35440244339406,-112.06074485555291L571.5175450779498,-39.66708426363766L726.9053166266531,-70.05054633133113Z" fill="#bfd8e4" stroke="#bfd8e4"></path><path d="M341.35440244339406,-112.06074485555291L726.9053166266531,-70.05054633133113L1096.5803788974881,-131.011812267825Z" fill="#a3cfd6" stroke="#a3cfd6"></path><path d="M571.5175450779498,-39.66708426363766L353.47840304486454,52.006875872612L479.3362078629434,134.75100779905915Z" fill="#c8daea" stroke="#c8daea"></path><path d="M571.5175450779498,-39.66708426363766L479.3362078629434,134.75100779905915L628.5918046161532,100.06659580394626Z" fill="#b7d4e3" stroke="#b7d4e3"></path><path d="M571.5175450779498,-39.66708426363766L628.5918046161532,100.06659580394626L726.9053166266531,-70.05054633133113Z" fill="#b0d3dd" stroke="#b0d3dd"></path><path d="M726.9053166266531,-70.05054633133113L628.5918046161532,100.06659580394626L807.1545843221247,48.64701275713742Z" fill="#a1cdd6" stroke="#a1cdd6"></path><path d="M726.9053166266531,-70.05054633133113L807.1545843221247,48.64701275713742L815.50696070306,-21.091457856819034Z" fill="#99cbd2" stroke="#99cbd2"></path><path d="M726.9053166266531,-70.05054633133113L815.50696070306,-21.091457856819034L971.4471676759422,-66.89181472174823Z" fill="#90c9cd" stroke="#90c9cd"></path><path d="M726.9053166266531,-70.05054633133113L971.4471676759422,-66.89181472174823L1096.5803788974881,-131.011812267825Z" fill="#81c4c6" stroke="#81c4c6"></path><path d="M815.50696070306,-21.091457856819034L807.1545843221247,48.64701275713742L973.3488471340388,24.488119957968593Z" fill="#8ac6cb" stroke="#8ac6cb"></path><path d="M815.50696070306,-21.091457856819034L973.3488471340388,24.488119957968593L971.4471676759422,-66.89181472174823Z" fill="#83c4c7" stroke="#83c4c7"></path><path d="M971.4471676759422,-66.89181472174823L973.3488471340388,24.488119957968593L1151.635353891179,50.25647319853306Z" fill="#80bebe" stroke="#80bebe"></path><path d="M971.4471676759422,-66.89181472174823L1151.635353891179,50.25647319853306L1096.5803788974881,-131.011812267825Z" fill="#80bcbb" stroke="#80bcbb"></path><path d="M1096.5803788974881,-131.011812267825L1151.635353891179,50.25647319853306L1257.2078793961555,-113.6533447355032Z" fill="#80b7b4" stroke="#80b7b4"></path><path d="M1257.2078793961555,-113.6533447355032L1151.635353891179,50.25647319853306L1296.091837529093,24.00626404210925Z" fill="#80b4af" stroke="#80b4af"></path><path d="M1257.2078793961555,-113.6533447355032L1296.091837529093,24.00626404210925L1440.1852528285235,-34.70348806120455Z" fill="#80afa7" stroke="#80afa7"></path><path d="M1440.1852528285235,-34.70348806120455L1296.091837529093,24.00626404210925L1418.2953538466245,71.1567238625139Z" fill="#7eaba3" stroke="#7eaba3"></path><path d="M1440.1852528285235,-34.70348806120455L1418.2953538466245,71.1567238625139L1452.3649731650949,198.95293219015002Z" fill="#78a59f" stroke="#78a59f"></path><path d="M-44.85518085770309,16.21416832320392L-90.2916980534792,272.24011226557195L23.3612950053066,28.50580159574747Z" fill="#efedf9" stroke="#efedf9"></path><path d="M23.3612950053066,28.50580159574747L-90.2916980534792,272.24011226557195L132.6529572531581,260.6390192080289Z" fill="#e2e7f7" stroke="#e2e7f7"></path><path d="M23.3612950053066,28.50580159574747L132.6529572531581,260.6390192080289L206.44162377342582,59.736593551933765Z" fill="#e1e6f5" stroke="#e1e6f5"></path><path d="M206.44162377342582,59.736593551933765L132.6529572531581,260.6390192080289L227.64215469360352,259.34525571763515Z" fill="#d4dff3" stroke="#d4dff3"></path><path d="M206.44162377342582,59.736593551933765L227.64215469360352,259.34525571763515L353.47840304486454,52.006875872612Z" fill="#d5dff1" stroke="#d5dff1"></path><path d="M353.47840304486454,52.006875872612L227.64215469360352,259.34525571763515L380.3455633856356,237.7256689220667Z" fill="#cadaf0" stroke="#cadaf0"></path><path d="M353.47840304486454,52.006875872612L380.3455633856356,237.7256689220667L479.3362078629434,134.75100779905915Z" fill="#c8d8ee" stroke="#c8d8ee"></path><path d="M479.3362078629434,134.75100779905915L380.3455633856356,237.7256689220667L488.8540262170136,213.87665192596614Z" fill="#bdd4eb" stroke="#bdd4eb"></path><path d="M479.3362078629434,134.75100779905915L488.8540262170136,213.87665192596614L628.5918046161532,100.06659580394626Z" fill="#b4d1e5" stroke="#b4d1e5"></path><path d="M628.5918046161532,100.06659580394626L488.8540262170136,213.87665192596614L699.0620007365942,241.5380227379501Z" fill="#a5ccdf" stroke="#a5ccdf"></path><path d="M628.5918046161532,100.06659580394626L699.0620007365942,241.5380227379501L807.1545843221247,48.64701275713742Z" fill="#99c9d7" stroke="#99c9d7"></path><path d="M807.1545843221247,48.64701275713742L699.0620007365942,241.5380227379501L855.4230378940701,205.3380974661559Z" fill="#89c3d1" stroke="#89c3d1"></path><path d="M807.1545843221247,48.64701275713742L855.4230378940701,205.3380974661559L973.3488471340388,24.488119957968593Z" fill="#81c2ca" stroke="#81c2ca"></path><path d="M973.3488471340388,24.488119957968593L855.4230378940701,205.3380974661559L965.49122935161,210.91687048785388Z" fill="#74bdc6" stroke="#74bdc6"></path><path d="M973.3488471340388,24.488119957968593L965.49122935161,210.91687048785388L1151.635353891179,50.25647319853306Z" fill="#77babf" stroke="#77babf"></path><path d="M1151.635353891179,50.25647319853306L965.49122935161,210.91687048785388L1173.5094285663217,189.9818078521639Z" fill="#72b3b9" stroke="#72b3b9"></path><path d="M1151.635353891179,50.25647319853306L1173.5094285663217,189.9818078521639L1244.5144490059465,181.90814355388284Z" fill="#73afb2" stroke="#73afb2"></path><path d="M1151.635353891179,50.25647319853306L1244.5144490059465,181.90814355388284L1296.091837529093,24.00626404210925Z" fill="#78b0af" stroke="#78b0af"></path><path d="M1296.091837529093,24.00626404210925L1244.5144490059465,181.90814355388284L1418.2953538466245,71.1567238625139Z" fill="#77aba8" stroke="#77aba8"></path><path d="M1418.2953538466245,71.1567238625139L1244.5144490059465,181.90814355388284L1452.3649731650949,198.95293219015002Z" fill="#72a5a4" stroke="#72a5a4"></path><path d="M-90.2916980534792,272.24011226557195L-116.41646166332066,418.46182613633573L66.2783589027822,365.8280180487782Z" fill="#d1e0f3" stroke="#d1e0f3"></path><path d="M-90.2916980534792,272.24011226557195L66.2783589027822,365.8280180487782L132.6529572531581,260.6390192080289Z" fill="#d7e1f7" stroke="#d7e1f7"></path><path d="M132.6529572531581,260.6390192080289L66.2783589027822,365.8280180487782L250.39767636917531,423.59190629795194Z" fill="#c2d8ef" stroke="#c2d8ef"></path><path d="M132.6529572531581,260.6390192080289L250.39767636917531,423.59190629795194L227.64215469360352,259.34525571763515Z" fill="#c7d8f2" stroke="#c7d8f2"></path><path d="M227.64215469360352,259.34525571763515L250.39767636917531,423.59190629795194L416.6399080026895,339.80565338395536Z" fill="#b8d2ec" stroke="#b8d2ec"></path><path d="M227.64215469360352,259.34525571763515L416.6399080026895,339.80565338395536L380.3455633856356,237.7256689220667Z" fill="#c0d4ef" stroke="#c0d4ef"></path><path d="M380.3455633856356,237.7256689220667L416.6399080026895,339.80565338395536L488.8540262170136,213.87665192596614Z" fill="#bad1ed" stroke="#bad1ed"></path><path d="M488.8540262170136,213.87665192596614L416.6399080026895,339.80565338395536L520.5482142325491,369.96316951699555Z" fill="#aecde9" stroke="#aecde9"></path><path d="M488.8540262170136,213.87665192596614L520.5482142325491,369.96316951699555L699.0620007365942,241.5380227379501Z" fill="#a2c9e2" stroke="#a2c9e2"></path><path d="M699.0620007365942,241.5380227379501L520.5482142325491,369.96316951699555L685.1584036834538,346.6351306345314Z" fill="#92c3dc" stroke="#92c3dc"></path><path d="M699.0620007365942,241.5380227379501L685.1584036834538,346.6351306345314L779.8667341098189,416.32473363541067Z" fill="#80bdd3" stroke="#80bdd3"></path><path d="M699.0620007365942,241.5380227379501L779.8667341098189,416.32473363541067L855.4230378940701,205.3380974661559Z" fill="#7fbed2" stroke="#7fbed2"></path><path d="M855.4230378940701,205.3380974661559L779.8667341098189,416.32473363541067L918.7490142602473,433.5431592632085Z" fill="#66b5c7" stroke="#66b5c7"></path><path d="M855.4230378940701,205.3380974661559L918.7490142602473,433.5431592632085L965.49122935161,210.91687048785388Z" fill="#6ab7c8" stroke="#6ab7c8"></path><path d="M965.49122935161,210.91687048785388L918.7490142602473,433.5431592632085L1072.7895313315094,362.0539284590632Z" fill="#5cafbf" stroke="#5cafbf"></path><path d="M965.49122935161,210.91687048785388L1072.7895313315094,362.0539284590632L1173.5094285663217,189.9818078521639Z" fill="#68b0bb" stroke="#68b0bb"></path><path d="M1173.5094285663217,189.9818078521639L1072.7895313315094,362.0539284590632L1329.5566960517317,334.9205408245325Z" fill="#64a7b2" stroke="#64a7b2"></path><path d="M1173.5094285663217,189.9818078521639L1329.5566960517317,334.9205408245325L1244.5144490059465,181.90814355388284Z" fill="#6aa7ae" stroke="#6aa7ae"></path><path d="M1244.5144490059465,181.90814355388284L1329.5566960517317,334.9205408245325L1452.3649731650949,198.95293219015002Z" fill="#6aa2a6" stroke="#6aa2a6"></path><path d="M1452.3649731650949,198.95293219015002L1329.5566960517317,334.9205408245325L1435.904155774042,428.0788408499211Z" fill="#609ba0" stroke="#609ba0"></path><path d="M1452.3649731650949,198.95293219015002L1435.904155774042,428.0788408499211L1462.8001241292804,955.6482022628188Z" fill="#298684" stroke="#298684"></path><path d="M1452.3649731650949,198.95293219015002L1462.8001241292804,955.6482022628188L1470.521657858044,1097.2161893639714Z" fill="#007369" stroke="#007369"></path><path d="M-116.41646166332066,418.46182613633573L-132.9733461420983,832.859484096989L-109.73019735887647,468.8292073085904Z" fill="#9cd0db" stroke="#9cd0db"></path><path d="M-116.41646166332066,418.46182613633573L-109.73019735887647,468.8292073085904L66.2783589027822,365.8280180487782Z" fill="#c1dbec" stroke="#c1dbec"></path><path d="M66.2783589027822,365.8280180487782L-109.73019735887647,468.8292073085904L24.5273407548666,552.5289434473962Z" fill="#b1d5e5" stroke="#b1d5e5"></path><path d="M66.2783589027822,365.8280180487782L24.5273407548666,552.5289434473962L208.19166401401162,477.05003064125776Z" fill="#a8d0e3" stroke="#a8d0e3"></path><path d="M66.2783589027822,365.8280180487782L208.19166401401162,477.05003064125776L250.39767636917531,423.59190629795194Z" fill="#acd0e6" stroke="#acd0e6"></path><path d="M250.39767636917531,423.59190629795194L208.19166401401162,477.05003064125776L406.35761154815555,511.3751632813364Z" fill="#97c7dd" stroke="#97c7dd"></path><path d="M250.39767636917531,423.59190629795194L406.35761154815555,511.3751632813364L416.6399080026895,339.80565338395536Z" fill="#9dc8e1" stroke="#9dc8e1"></path><path d="M416.6399080026895,339.80565338395536L406.35761154815555,511.3751632813364L520.5482142325491,369.96316951699555Z" fill="#98c6e0" stroke="#98c6e0"></path><path d="M520.5482142325491,369.96316951699555L406.35761154815555,511.3751632813364L583.0779367312789,506.12451162189245Z" fill="#81bed5" stroke="#81bed5"></path><path d="M520.5482142325491,369.96316951699555L583.0779367312789,506.12451162189245L685.1584036834538,346.6351306345314Z" fill="#80bed4" stroke="#80bed4"></path><path d="M685.1584036834538,346.6351306345314L583.0779367312789,506.12451162189245L660.511618796736,496.48939177393913Z" fill="#6eb8cc" stroke="#6eb8cc"></path><path d="M685.1584036834538,346.6351306345314L660.511618796736,496.48939177393913L779.8667341098189,416.32473363541067Z" fill="#6bb7ca" stroke="#6bb7ca"></path><path d="M779.8667341098189,416.32473363541067L660.511618796736,496.48939177393913L769.745936896652,525.6927972938865Z" fill="#57b0c1" stroke="#57b0c1"></path><path d="M779.8667341098189,416.32473363541067L769.745936896652,525.6927972938865L918.7490142602473,433.5431592632085Z" fill="#4eadbd" stroke="#4eadbd"></path><path d="M918.7490142602473,433.5431592632085L769.745936896652,525.6927972938865L1023.772148983553,512.1775849442929Z" fill="#39a7b3" stroke="#39a7b3"></path><path d="M918.7490142602473,433.5431592632085L1023.772148983553,512.1775849442929L1072.7895313315094,362.0539284590632Z" fill="#41a6b2" stroke="#41a6b2"></path><path d="M1072.7895313315094,362.0539284590632L1023.772148983553,512.1775849442929L1082.9151267092675,479.6644235495478Z" fill="#3da1ab" stroke="#3da1ab"></path><path d="M1072.7895313315094,362.0539284590632L1082.9151267092675,479.6644235495478L1329.5566960517317,334.9205408245325Z" fill="#4da1aa" stroke="#4da1aa"></path><path d="M1329.5566960517317,334.9205408245325L1082.9151267092675,479.6644235495478L1318.5652194544673,502.3399776779115Z" fill="#40999f" stroke="#40999f"></path><path d="M1329.5566960517317,334.9205408245325L1318.5652194544673,502.3399776779115L1366.9959247671068,465.5727117229253Z" fill="#429498" stroke="#429498"></path><path d="M1329.5566960517317,334.9205408245325L1366.9959247671068,465.5727117229253L1435.904155774042,428.0788408499211Z" fill="#489498" stroke="#489498"></path><path d="M1435.904155774042,428.0788408499211L1366.9959247671068,465.5727117229253L1382.885983865708,695.1851762831211Z" fill="#288988" stroke="#288988"></path><path d="M1435.904155774042,428.0788408499211L1382.885983865708,695.1851762831211L1462.8001241292804,955.6482022628188Z" fill="#007972" stroke="#007972"></path><path d="M-109.73019735887647,468.8292073085904L-132.9733461420983,832.859484096989L-15.277328453958035,689.4105201680213Z" fill="#82c7d0" stroke="#82c7d0"></path><path d="M-109.73019735887647,468.8292073085904L-15.277328453958035,689.4105201680213L24.5273407548666,552.5289434473962Z" fill="#96cdda" stroke="#96cdda"></path><path d="M24.5273407548666,552.5289434473962L-15.277328453958035,689.4105201680213L29.627584693953395,665.1412648055702Z" fill="#81c5d0" stroke="#81c5d0"></path><path d="M24.5273407548666,552.5289434473962L29.627584693953395,665.1412648055702L173.1046536192298,637.9064346291125Z" fill="#81c3d1" stroke="#81c3d1"></path><path d="M24.5273407548666,552.5289434473962L173.1046536192298,637.9064346291125L208.19166401401162,477.05003064125776Z" fill="#8dc6d7" stroke="#8dc6d7"></path><path d="M208.19166401401162,477.05003064125776L173.1046536192298,637.9064346291125L406.35761154815555,511.3751632813364Z" fill="#86c2d5" stroke="#86c2d5"></path><path d="M406.35761154815555,511.3751632813364L173.1046536192298,637.9064346291125L414.1691662184894,719.9099824111909Z" fill="#6bb8ca" stroke="#6bb8ca"></path><path d="M406.35761154815555,511.3751632813364L414.1691662184894,719.9099824111909L484.707504613325,728.5284667555243Z" fill="#59b1c4" stroke="#59b1c4"></path><path d="M406.35761154815555,511.3751632813364L484.707504613325,728.5284667555243L583.0779367312789,506.12451162189245Z" fill="#63b4c8" stroke="#63b4c8"></path><path d="M583.0779367312789,506.12451162189245L484.707504613325,728.5284667555243L663.4160284884274,692.4325492233038Z" fill="#45aaba" stroke="#45aaba"></path><path d="M583.0779367312789,506.12451162189245L663.4160284884274,692.4325492233038L660.511618796736,496.48939177393913Z" fill="#50aebf" stroke="#50aebf"></path><path d="M660.511618796736,496.48939177393913L663.4160284884274,692.4325492233038L769.745936896652,525.6927972938865Z" fill="#44aab9" stroke="#44aab9"></path><path d="M769.745936896652,525.6927972938865L663.4160284884274,692.4325492233038L766.8694062810391,684.629656104371Z" fill="#2ea3af" stroke="#2ea3af"></path><path d="M769.745936896652,525.6927972938865L766.8694062810391,684.629656104371L1015.6770543381572,703.0394841637462Z" fill="#1a9ca5" stroke="#1a9ca5"></path><path d="M769.745936896652,525.6927972938865L1015.6770543381572,703.0394841637462L1023.772148983553,512.1775849442929Z" fill="#1c9da5" stroke="#1c9da5"></path><path d="M1023.772148983553,512.1775849442929L1015.6770543381572,703.0394841637462L1108.6286245007068,703.8600739371032Z" fill="#0b9296" stroke="#0b9296"></path><path d="M1023.772148983553,512.1775849442929L1108.6286245007068,703.8600739371032L1082.9151267092675,479.6644235495478Z" fill="#1f979d" stroke="#1f979d"></path><path d="M1082.9151267092675,479.6644235495478L1108.6286245007068,703.8600739371032L1232.2927887551486,665.2726250700653Z" fill="#128f91" stroke="#128f91"></path><path d="M1082.9151267092675,479.6644235495478L1232.2927887551486,665.2726250700653L1318.5652194544673,502.3399776779115Z" fill="#239194" stroke="#239194"></path><path d="M1318.5652194544673,502.3399776779115L1232.2927887551486,665.2726250700653L1382.885983865708,695.1851762831211Z" fill="#108684" stroke="#108684"></path><path d="M1318.5652194544673,502.3399776779115L1382.885983865708,695.1851762831211L1366.9959247671068,465.5727117229253Z" fill="#228988" stroke="#228988"></path><path d="M-15.277328453958035,689.4105201680213L-132.9733461420983,832.859484096989L41.00195241160691,819.7660778090358Z" fill="#79bbc1" stroke="#79bbc1"></path><path d="M-15.277328453958035,689.4105201680213L41.00195241160691,819.7660778090358L29.627584693953395,665.1412648055702Z" fill="#75bdc6" stroke="#75bdc6"></path><path d="M29.627584693953395,665.1412648055702L41.00195241160691,819.7660778090358L173.1046536192298,637.9064346291125Z" fill="#70bcc6" stroke="#70bcc6"></path><path d="M173.1046536192298,637.9064346291125L41.00195241160691,819.7660778090358L213.36276216432452,815.7406971696764Z" fill="#6bb5bf" stroke="#6bb5bf"></path><path d="M173.1046536192298,637.9064346291125L213.36276216432452,815.7406971696764L414.1691662184894,719.9099824111909Z" fill="#60b2c0" stroke="#60b2c0"></path><path d="M414.1691662184894,719.9099824111909L213.36276216432452,815.7406971696764L387.01815923675895,829.6610471885651Z" fill="#5baab6" stroke="#5baab6"></path><path d="M414.1691662184894,719.9099824111909L387.01815923675895,829.6610471885651L484.707504613325,728.5284667555243Z" fill="#53a8b8" stroke="#53a8b8"></path><path d="M484.707504613325,728.5284667555243L387.01815923675895,829.6610471885651L497.88564023561776,830.7383482251316Z" fill="#4ea4b1" stroke="#4ea4b1"></path><path d="M484.707504613325,728.5284667555243L497.88564023561776,830.7383482251316L630.7847182732075,838.7236755620688Z" fill="#419faa" stroke="#419faa"></path><path d="M484.707504613325,728.5284667555243L630.7847182732075,838.7236755620688L663.4160284884274,692.4325492233038Z" fill="#38a0ab" stroke="#38a0ab"></path><path d="M663.4160284884274,692.4325492233038L630.7847182732075,838.7236755620688L770.1156560238451,876.1578940227628Z" fill="#29979f" stroke="#29979f"></path><path d="M663.4160284884274,692.4325492233038L770.1156560238451,876.1578940227628L766.8694062810391,684.629656104371Z" fill="#2299a1" stroke="#2299a1"></path><path d="M766.8694062810391,684.629656104371L770.1156560238451,876.1578940227628L983.5793943051249,770.7632302120328Z" fill="#109196" stroke="#109196"></path><path d="M766.8694062810391,684.629656104371L983.5793943051249,770.7632302120328L1015.6770543381572,703.0394841637462Z" fill="#039296" stroke="#039296"></path><path d="M1015.6770543381572,703.0394841637462L983.5793943051249,770.7632302120328L1108.6286245007068,703.8600739371032Z" fill="#008b8d" stroke="#008b8d"></path><path d="M1108.6286245007068,703.8600739371032L983.5793943051249,770.7632302120328L1139.1626614239067,877.4482668377459Z" fill="#008482" stroke="#008482"></path><path d="M1108.6286245007068,703.8600739371032L1139.1626614239067,877.4482668377459L1217.870515594259,786.3912139926106Z" fill="#007f7c" stroke="#007f7c"></path><path d="M1108.6286245007068,703.8600739371032L1217.870515594259,786.3912139926106L1232.2927887551486,665.2726250700653Z" fill="#008482" stroke="#008482"></path><path d="M1232.2927887551486,665.2726250700653L1217.870515594259,786.3912139926106L1382.885983865708,695.1851762831211Z" fill="#007f7b" stroke="#007f7b"></path><path d="M1382.885983865708,695.1851762831211L1217.870515594259,786.3912139926106L1392.230252707377,817.7060951292515Z" fill="#007871" stroke="#007871"></path><path d="M1382.885983865708,695.1851762831211L1392.230252707377,817.7060951292515L1462.8001241292804,955.6482022628188Z" fill="#006f64" stroke="#006f64"></path><path d="M-132.9733461420983,832.859484096989L-34.4471326097846,1149.7569001559168L-47.514924723654985,1007.217581095174Z" fill="#7ca9a8" stroke="#7ca9a8"></path><path d="M-132.9733461420983,832.859484096989L-47.514924723654985,1007.217581095174L41.00195241160691,819.7660778090358Z" fill="#7ab2b4" stroke="#7ab2b4"></path><path d="M41.00195241160691,819.7660778090358L-47.514924723654985,1007.217581095174L88.07500996626914,976.988731501624Z" fill="#74abad" stroke="#74abad"></path><path d="M41.00195241160691,819.7660778090358L88.07500996626914,976.988731501624L213.36276216432452,815.7406971696764Z" fill="#6dacb2" stroke="#6dacb2"></path><path d="M213.36276216432452,815.7406971696764L88.07500996626914,976.988731501624L221.70002913102508,1025.955796474591Z" fill="#68a4a8" stroke="#68a4a8"></path><path d="M213.36276216432452,815.7406971696764L221.70002913102508,1025.955796474591L387.01815923675895,829.6610471885651Z" fill="#60a4ac" stroke="#60a4ac"></path><path d="M387.01815923675895,829.6610471885651L221.70002913102508,1025.955796474591L404.0282926429063,1029.2811081837863Z" fill="#5b9ba2" stroke="#5b9ba2"></path><path d="M387.01815923675895,829.6610471885651L404.0282926429063,1029.2811081837863L484.33613835833967,992.451302697882Z" fill="#5398a1" stroke="#5398a1"></path><path d="M387.01815923675895,829.6610471885651L484.33613835833967,992.451302697882L497.88564023561776,830.7383482251316Z" fill="#4e9ca6" stroke="#4e9ca6"></path><path d="M497.88564023561776,830.7383482251316L484.33613835833967,992.451302697882L630.7847182732075,838.7236755620688Z" fill="#4197a0" stroke="#4197a0"></path><path d="M630.7847182732075,838.7236755620688L484.33613835833967,992.451302697882L703.3490776643157,966.7001512739807Z" fill="#369095" stroke="#369095"></path><path d="M630.7847182732075,838.7236755620688L703.3490776643157,966.7001512739807L770.1156560238451,876.1578940227628Z" fill="#278e92" stroke="#278e92"></path><path d="M770.1156560238451,876.1578940227628L703.3490776643157,966.7001512739807L860.6119526736438,937.3691498301923Z" fill="#1a8789" stroke="#1a8789"></path><path d="M770.1156560238451,876.1578940227628L860.6119526736438,937.3691498301923L983.5793943051249,770.7632302120328Z" fill="#0b8889" stroke="#0b8889"></path><path d="M983.5793943051249,770.7632302120328L860.6119526736438,937.3691498301923L955.1205068081617,958.3687977958471Z" fill="#018381" stroke="#018381"></path><path d="M983.5793943051249,770.7632302120328L955.1205068081617,958.3687977958471L1139.1626614239067,877.4482668377459Z" fill="#007f7c" stroke="#007f7c"></path><path d="M1139.1626614239067,877.4482668377459L955.1205068081617,958.3687977958471L1069.3402601312846,1024.5959873311222Z" fill="#007770" stroke="#007770"></path><path d="M1139.1626614239067,877.4482668377459L1069.3402601312846,1024.5959873311222L1302.9531115852296,948.549257973209Z" fill="#007168" stroke="#007168"></path><path d="M1139.1626614239067,877.4482668377459L1302.9531115852296,948.549257973209L1217.870515594259,786.3912139926106Z" fill="#00756d" stroke="#00756d"></path><path d="M1217.870515594259,786.3912139926106L1302.9531115852296,948.549257973209L1392.230252707377,817.7060951292515Z" fill="#007269" stroke="#007269"></path><path d="M1392.230252707377,817.7060951292515L1302.9531115852296,948.549257973209L1462.8001241292804,955.6482022628188Z" fill="#00695c" stroke="#00695c"></path><path d="M-47.514924723654985,1007.217581095174L-34.4471326097846,1149.7569001559168L66.8545968644321,1090.1549344975501Z" fill="#779f9c" stroke="#779f9c"></path><path d="M-47.514924723654985,1007.217581095174L66.8545968644321,1090.1549344975501L88.07500996626914,976.988731501624Z" fill="#73a2a2" stroke="#73a2a2"></path><path d="M88.07500996626914,976.988731501624L66.8545968644321,1090.1549344975501L221.70002913102508,1025.955796474591Z" fill="#6c9e9f" stroke="#6c9e9f"></path><path d="M221.70002913102508,1025.955796474591L66.8545968644321,1090.1549344975501L203.85003078728914,1168.6952826473862Z" fill="#699796" stroke="#699796"></path><path d="M221.70002913102508,1025.955796474591L203.85003078728914,1168.6952826473862L334.66304272413254,1095.1772021781653Z" fill="#619394" stroke="#619394"></path><path d="M221.70002913102508,1025.955796474591L334.66304272413254,1095.1772021781653L404.0282926429063,1029.2811081837863Z" fill="#5c9498" stroke="#5c9498"></path><path d="M404.0282926429063,1029.2811081837863L334.66304272413254,1095.1772021781653L472.5346196629107,1083.1742114759982Z" fill="#558f93" stroke="#558f93"></path><path d="M404.0282926429063,1029.2811081837863L472.5346196629107,1083.1742114759982L484.33613835833967,992.451302697882Z" fill="#4f8f95" stroke="#4f8f95"></path><path d="M484.33613835833967,992.451302697882L472.5346196629107,1083.1742114759982L656.3092703092843,1102.000195775181Z" fill="#41898c" stroke="#41898c"></path><path d="M484.33613835833967,992.451302697882L656.3092703092843,1102.000195775181L703.3490776643157,966.7001512739807Z" fill="#35888a" stroke="#35888a"></path><path d="M703.3490776643157,966.7001512739807L656.3092703092843,1102.000195775181L799.7484923712909,1104.1464738361537Z" fill="#247f7e" stroke="#247f7e"></path><path d="M703.3490776643157,966.7001512739807L799.7484923712909,1104.1464738361537L860.6119526736438,937.3691498301923Z" fill="#19807f" stroke="#19807f"></path><path d="M860.6119526736438,937.3691498301923L799.7484923712909,1104.1464738361537L921.7056802567095,1082.2704175673425Z" fill="#0d7975" stroke="#0d7975"></path><path d="M860.6119526736438,937.3691498301923L921.7056802567095,1082.2704175673425L955.1205068081617,958.3687977958471Z" fill="#057b76" stroke="#057b76"></path><path d="M955.1205068081617,958.3687977958471L921.7056802567095,1082.2704175673425L1069.3402601312846,1024.5959873311222Z" fill="#00746e" stroke="#00746e"></path><path d="M1069.3402601312846,1024.5959873311222L921.7056802567095,1082.2704175673425L1137.4000126775354,1153.2296919822693Z" fill="#006c61" stroke="#006c61"></path><path d="M1069.3402601312846,1024.5959873311222L1137.4000126775354,1153.2296919822693L1250.466597341001,1154.3058601208031Z" fill="#006456" stroke="#006456"></path><path d="M1069.3402601312846,1024.5959873311222L1250.466597341001,1154.3058601208031L1302.9531115852296,948.549257973209Z" fill="#00675a" stroke="#00675a"></path><path d="M1302.9531115852296,948.549257973209L1250.466597341001,1154.3058601208031L1470.521657858044,1097.2161893639714Z" fill="#005e4d" stroke="#005e4d"></path><path d="M1302.9531115852296,948.549257973209L1470.521657858044,1097.2161893639714L1462.8001241292804,955.6482022628188Z" fill="#00604f" stroke="#00604f"></path><path d="M-34.4471326097846,1149.7569001559168L203.85003078728914,1168.6952826473862L66.8545968644321,1090.1549344975501Z" fill="#709793" stroke="#709793"></path><path d="M203.85003078728914,1168.6952826473862L1250.466597341001,1154.3058601208031L1137.4000126775354,1153.2296919822693Z" fill="#0d6f66" stroke="#0d6f66"></path><path d="M203.85003078728914,1168.6952826473862L1137.4000126775354,1153.2296919822693L799.7484923712909,1104.1464738361537Z" fill="#257874" stroke="#257874"></path><path d="M203.85003078728914,1168.6952826473862L799.7484923712909,1104.1464738361537L656.3092703092843,1102.000195775181Z" fill="#3f8282" stroke="#3f8282"></path><path d="M203.85003078728914,1168.6952826473862L656.3092703092843,1102.000195775181L472.5346196629107,1083.1742114759982Z" fill="#50888c" stroke="#50888c"></path><path d="M203.85003078728914,1168.6952826473862L472.5346196629107,1083.1742114759982L334.66304272413254,1095.1772021781653Z" fill="#5b8e8f" stroke="#5b8e8f"></path><path d="M799.7484923712909,1104.1464738361537L1137.4000126775354,1153.2296919822693L921.7056802567095,1082.2704175673425Z" fill="#006e65" stroke="#006e65"></path></g></svg>